<?xml version="1.0" encoding="UTF-8"?>
<svg version="1.1" xmlns="http://www.w3.org/2000/svg" width="244" height="269">
<path d="M0 0 C1.1034375 -0.01675781 2.206875 -0.03351562 3.34375 -0.05078125 C6.84400396 0.35209452 8.6214876 1.34453744 11.5 3.3125 C13.1790027 4.05513581 14.85935256 4.79544522 16.5546875 5.5 C19.45700133 6.7122114 22.32303221 8.00375174 25.1953125 9.28515625 C26.66801297 9.94163121 28.14186366 10.59553582 29.6171875 11.24609375 C38.41788234 15.13064953 47.18117722 19.09753821 55.7578125 23.45703125 C57.95104487 24.53397719 60.20213671 25.4593281 62.45703125 26.3984375 C65.16599331 27.61047788 67.79321332 28.96547316 70.4375 30.3125 C74.40819149 32.32004216 78.31249136 34.06249697 82.50390625 35.53515625 C85.82145515 36.82711756 88.94626696 38.49730576 92.11328125 40.1171875 C94.13856208 41.13148526 96.16231489 42.06187049 98.25 42.9375 C108.39716841 47.23053279 108.39716841 47.23053279 110.5 51.3125 C110.34926107 53.7996924 109.82775934 54.93340486 108.203125 56.8125 C106.33090669 58.46142621 104.67264981 59.29058708 102.375 60.25 C101.56933594 60.59289062 100.76367188 60.93578125 99.93359375 61.2890625 C99.13050781 61.62679687 98.32742187 61.96453125 97.5 62.3125 C96.14432734 62.91327979 94.7901614 63.5174707 93.4375 64.125 C90.5889564 65.39543059 87.73250272 66.64260636 84.8671875 67.875 C77.07456508 71.23188072 69.44941975 74.77355785 61.8828125 78.6171875 C54.36231981 82.38611801 46.67642955 85.80292177 38.98046875 89.1953125 C36.42176959 90.34773448 33.88078342 91.53533344 31.34179688 92.73046875 C28.74735218 93.94919251 26.14644974 95.15382642 23.54541016 96.35839844 C22.16190066 97.00374996 20.78142343 97.6556358 19.40380859 98.31347656 C17.31800046 99.30837278 15.22278554 100.28066123 13.125 101.25 C12.49585693 101.55655518 11.86671387 101.86311035 11.21850586 102.17895508 C5.42549784 104.81145185 0.08973755 105.49789512 -6.03369141 103.47583008 C-8.78138799 102.32181791 -11.4502055 101.06395894 -14.125 99.75 C-15.08559326 99.29544434 -16.04618652 98.84088867 -17.03588867 98.37255859 C-18.96561399 97.4580962 -20.89205409 96.53666506 -22.81494141 95.60791016 C-25.84307302 94.14698396 -28.88710634 92.72336406 -31.93676758 91.30810547 C-33.7492171 90.46687223 -35.5582693 89.61833133 -37.3671875 88.76953125 C-40.04528317 87.52398301 -42.73318444 86.3121487 -45.4375 85.125 C-48.70551049 83.68731701 -51.88790382 82.12848461 -55.0703125 80.51171875 C-59.01107675 78.56667916 -63.00610204 76.73713903 -66.99267578 74.88842773 C-70.35339738 73.32619423 -73.69554774 71.74054216 -77 70.0625 C-79.76714899 68.67892551 -82.53707825 67.42147053 -85.38671875 66.22265625 C-106.27806899 57.22508766 -106.27806899 57.22508766 -108.9375 53.0625 C-109.2159375 52.19625 -109.2159375 52.19625 -109.5 51.3125 C-104.63470425 44.01455638 -96.42707288 41.8428769 -88.66430664 38.52880859 C-80.19616589 34.90358428 -71.87791641 31.10091324 -63.68359375 26.890625 C-60.99281913 25.55679317 -58.28532431 24.34283837 -55.51831055 23.17822266 C-52.12554817 21.72295044 -48.7752862 20.1743614 -45.41699219 18.64160156 C-42.54491508 17.33296516 -39.66783981 16.03600891 -36.7890625 14.7421875 C-35.38720703 14.10990234 -35.38720703 14.10990234 -33.95703125 13.46484375 C-32.04660545 12.60317584 -30.13512052 11.7438528 -28.22265625 10.88671875 C-26.83240234 10.25830078 -26.83240234 10.25830078 -25.4140625 9.6171875 C-24.5885791 9.24577637 -23.7630957 8.87436523 -22.91259766 8.49169922 C-20.42125785 7.33204854 -20.42125785 7.33204854 -17.94287109 5.66845703 C-15.5 4.3125 -15.5 4.3125 -11.5 4.3125 C-11.5 3.6525 -11.5 2.9925 -11.5 2.3125 C-7.55217867 0.46380009 -4.34690758 0.01523449 0 0 Z " fill="#393E3F" transform="translate(121.5,11.6875)"/>
<path d="M0 0 C5.63221322 1.06172639 10.4519741 2.42864891 15.5625 5.125 C16.76284531 5.74773428 17.96337395 6.37011527 19.1640625 6.9921875 C20.09460449 7.48090332 20.09460449 7.48090332 21.04394531 7.97949219 C24.48825137 9.77644667 27.96373788 11.51088931 31.4375 13.25 C32.08726807 13.57887207 32.73703613 13.90774414 33.40649414 14.24658203 C37.543202 16.32688256 41.73549414 18.1911104 46 20 C48.12780747 20.99401225 50.25285864 21.9939478 52.375 23 C65.32642675 29.064594 65.32642675 29.064594 79.109375 27.2421875 C81.44321805 26.22858413 83.71772974 25.12485903 86 24 C87.89381124 23.12063204 89.78986509 22.24608598 91.6875 21.375 C92.77417969 20.87097656 93.86085938 20.36695312 94.98046875 19.84765625 C98.16229208 18.37854681 101.35527136 16.9351777 104.55078125 15.49609375 C106.01994995 14.83311279 106.01994995 14.83311279 107.51879883 14.15673828 C109.47714816 13.27370893 111.43659024 12.39309825 113.3972168 11.51513672 C117.75950007 9.5457208 121.94296803 7.55585316 126 5 C130.26330514 3.06213403 134.53677908 1.41516761 139 0 C142.14888437 3.14888437 141.13055261 11.46172797 141.13671875 15.62695312 C141.13285156 16.51318359 141.12898437 17.39941406 141.125 18.3125 C141.12886719 19.21806641 141.13273438 20.12363281 141.13671875 21.05664062 C141.13478516 22.35311523 141.13478516 22.35311523 141.1328125 23.67578125 C141.13168457 24.45864502 141.13055664 25.24150879 141.12939453 26.0480957 C141 28 141 28 140 30 C139.34 30 138.68 30 138 30 C137.34 31.32 136.68 32.64 136 34 C135.34 34 134.68 34 134 34 C133.77054688 34.5671875 133.54109375 35.134375 133.3046875 35.71875 C131.65784447 38.59825996 129.62877282 40.33055886 127.125 42.5 C124.59731118 44.70323921 122.13032651 46.86457174 119.8046875 49.28125 C118 51 118 51 116 51 C115.34 52.32 114.68 53.64 114 55 C113.34 55 112.68 55 112 55 C111.67 55.99 111.34 56.98 111 58 C109.2578125 59.71875 109.2578125 59.71875 107.125 61.5 C104.14615469 64.00265321 104.14615469 64.00265321 101.3671875 66.71875 C100 68 100 68 98 68 C97.01 69.98 97.01 69.98 96 72 C95.34 72 94.68 72 94 72 C93.505 73.485 93.505 73.485 93 75 C91.3984375 76.578125 91.3984375 76.578125 89.375 78.25 C85.90736836 81.18223429 82.69255438 84.2502464 79.54296875 87.51953125 C77.17328627 89.79322659 75.46362793 90.93818294 72.1875 91.375 C68.20089069 90.90598714 66.09342686 89.5042027 63 87 C63 86.34 63 85.68 63 85 C62.0409375 84.814375 62.0409375 84.814375 61.0625 84.625 C60.381875 84.41875 59.70125 84.2125 59 84 C58.67 83.34 58.34 82.68 58 82 C56.34662021 80.9781815 54.67678345 79.98294203 53 79 C50.8769657 77.50561827 48.77331955 75.98340045 46.6875 74.4375 C46.13771484 74.03853516 45.58792969 73.63957031 45.02148438 73.22851562 C43.64236228 72.20231173 42.3159406 71.10606172 41 70 C41 69.34 41 68.68 41 68 C40.401875 67.896875 39.80375 67.79375 39.1875 67.6875 C36.62094143 66.88086731 35.86391813 65.91250368 34 64 C28.19640202 59.10155033 22.16845684 54.6345176 15.8359375 50.4453125 C14.92714844 49.72988281 14.92714844 49.72988281 14 49 C14 48.34 14 47.68 14 47 C12.9790625 46.6596875 12.9790625 46.6596875 11.9375 46.3125 C7.6145422 44.38096566 3.1659848 42.24169304 0.9152832 37.91455078 C-0.25181368 34.19814571 -0.24905837 30.70721258 -0.1953125 26.85546875 C-0.1924826 26.08568192 -0.18965271 25.31589508 -0.18673706 24.52278137 C-0.17559157 22.07752575 -0.15049781 19.63264388 -0.125 17.1875 C-0.1149629 15.52409385 -0.10583833 13.86068193 -0.09765625 12.19726562 C-0.07567073 8.13136763 -0.04118014 4.06574706 0 0 Z " fill="#393E3F" transform="translate(51,95)"/>
<path d="M0 0 C0.76441406 0.20625 1.52882812 0.4125 2.31640625 0.625 C2.94171102 28.43021863 1.30088927 49.98717096 -18.30078125 71.25 C-27.70662007 80.625 -27.70662007 80.625 -31.68359375 80.625 C-31.68359375 81.285 -31.68359375 81.945 -31.68359375 82.625 C-50.50676515 91.22908278 -69.59570423 95.35833747 -89.95703125 89.10546875 C-109.00674609 81.97869532 -109.00674609 81.97869532 -111.68359375 76.625 C-112.54984375 76.25375 -112.54984375 76.25375 -113.43359375 75.875 C-116.62796746 74.10034794 -118.38753805 71.43766823 -120.68359375 68.625 C-121.44671875 68.068125 -122.20984375 67.51125 -122.99609375 66.9375 C-123.55296875 66.504375 -124.10984375 66.07125 -124.68359375 65.625 C-124.68359375 64.635 -124.68359375 63.645 -124.68359375 62.625 C-125.67359375 62.295 -126.66359375 61.965 -127.68359375 61.625 C-139.25790215 48.07534297 -140.52621107 30.6537081 -139.68359375 13.625 C-138.68359375 12.625 -138.68359375 12.625 -136.4765625 12.25390625 C-132.47196735 12.78598533 -130.85823224 14.77845533 -127.99609375 17.5625 C-124.63460694 20.98721425 -124.63460694 20.98721425 -120.68359375 23.625 C-120.68359375 24.285 -120.68359375 24.945 -120.68359375 25.625 C-119.03359375 26.285 -117.38359375 26.945 -115.68359375 27.625 C-115.68359375 28.285 -115.68359375 28.945 -115.68359375 29.625 C-115.11769531 29.88410156 -114.55179688 30.14320313 -113.96875 30.41015625 C-111.4565197 31.745718 -109.35631138 33.30382623 -107.12109375 35.0625 C-106.35667969 35.65933594 -105.59226563 36.25617188 -104.8046875 36.87109375 C-102.97707718 38.38232217 -101.35727525 39.9513185 -99.68359375 41.625 C-93.97866803 46.46358805 -88.16634716 51.12911534 -82.046875 55.43359375 C-81.59699219 55.82675781 -81.14710937 56.21992188 -80.68359375 56.625 C-80.68359375 57.285 -80.68359375 57.945 -80.68359375 58.625 C-79.03359375 59.285 -77.38359375 59.945 -75.68359375 60.625 C-75.68359375 61.285 -75.68359375 61.945 -75.68359375 62.625 C-73.70359375 63.12 -73.70359375 63.12 -71.68359375 63.625 C-71.68359375 64.285 -71.68359375 64.945 -71.68359375 65.625 C-66.31774577 63.34857964 -62.90593632 60.24345173 -58.93359375 56.125 C-58.35738281 55.54363281 -57.78117187 54.96226562 -57.1875 54.36328125 C-54.72423112 51.85407728 -52.64527781 49.56752609 -50.68359375 46.625 C-50.02359375 46.625 -49.36359375 46.625 -48.68359375 46.625 C-48.35359375 45.635 -48.02359375 44.645 -47.68359375 43.625 C-46.16015625 42.16015625 -46.16015625 42.16015625 -44.30859375 40.6875 C-41.66447572 38.51921507 -39.70517587 36.39137554 -37.68359375 33.625 C-37.02359375 33.625 -36.36359375 33.625 -35.68359375 33.625 C-35.37421875 32.7896875 -35.37421875 32.7896875 -35.05859375 31.9375 C-33.53694297 29.37836005 -31.70772186 27.93599151 -29.390625 26.109375 C-27.44875307 24.42079072 -25.8471838 22.5873723 -24.18359375 20.625 C-21.28155962 17.21271812 -18.13421149 14.48827855 -14.68359375 11.625 C-13.66290385 10.47639074 -12.66353483 9.3085652 -11.68359375 8.125 C-4.34888772 -0.60770483 -4.34888772 -0.60770483 0 0 Z " fill="#393E3F" transform="translate(189.68359375,146.375)"/>
<path d="M0 0 C1.1034375 -0.01675781 2.206875 -0.03351562 3.34375 -0.05078125 C6.84400396 0.35209452 8.6214876 1.34453744 11.5 3.3125 C13.1790027 4.05513581 14.85935256 4.79544522 16.5546875 5.5 C19.45700133 6.7122114 22.32303221 8.00375174 25.1953125 9.28515625 C26.66801297 9.94163121 28.14186366 10.59553582 29.6171875 11.24609375 C38.41788234 15.13064953 47.18117722 19.09753821 55.7578125 23.45703125 C57.95104487 24.53397719 60.20213671 25.4593281 62.45703125 26.3984375 C65.16599331 27.61047788 67.79321332 28.96547316 70.4375 30.3125 C74.40819149 32.32004216 78.31249136 34.06249697 82.50390625 35.53515625 C85.82145515 36.82711756 88.94626696 38.49730576 92.11328125 40.1171875 C94.13856208 41.13148526 96.16231489 42.06187049 98.25 42.9375 C108.39716841 47.23053279 108.39716841 47.23053279 110.5 51.3125 C110.34926107 53.7996924 109.82775934 54.93340486 108.203125 56.8125 C106.33090669 58.46142621 104.67264981 59.29058708 102.375 60.25 C101.56933594 60.59289062 100.76367188 60.93578125 99.93359375 61.2890625 C99.13050781 61.62679687 98.32742187 61.96453125 97.5 62.3125 C96.14432734 62.91327979 94.7901614 63.5174707 93.4375 64.125 C90.5889564 65.39543059 87.73250272 66.64260636 84.8671875 67.875 C77.07456508 71.23188072 69.44941975 74.77355785 61.8828125 78.6171875 C54.36231981 82.38611801 46.67642955 85.80292177 38.98046875 89.1953125 C36.42176959 90.34773448 33.88078342 91.53533344 31.34179688 92.73046875 C28.74735218 93.94919251 26.14644974 95.15382642 23.54541016 96.35839844 C22.16190066 97.00374996 20.78142343 97.6556358 19.40380859 98.31347656 C17.31800046 99.30837278 15.22278554 100.28066123 13.125 101.25 C12.49585693 101.55655518 11.86671387 101.86311035 11.21850586 102.17895508 C5.42549784 104.81145185 0.08973755 105.49789512 -6.03369141 103.47583008 C-8.78138799 102.32181791 -11.4502055 101.06395894 -14.125 99.75 C-15.08559326 99.29544434 -16.04618652 98.84088867 -17.03588867 98.37255859 C-18.96561399 97.4580962 -20.89205409 96.53666506 -22.81494141 95.60791016 C-25.84307302 94.14698396 -28.88710634 92.72336406 -31.93676758 91.30810547 C-33.7492171 90.46687223 -35.5582693 89.61833133 -37.3671875 88.76953125 C-40.04528317 87.52398301 -42.73318444 86.3121487 -45.4375 85.125 C-48.70551049 83.68731701 -51.88790382 82.12848461 -55.0703125 80.51171875 C-59.01107675 78.56667916 -63.00610204 76.73713903 -66.99267578 74.88842773 C-70.35339738 73.32619423 -73.69554774 71.74054216 -77 70.0625 C-79.76714899 68.67892551 -82.53707825 67.42147053 -85.38671875 66.22265625 C-106.27806899 57.22508766 -106.27806899 57.22508766 -108.9375 53.0625 C-109.2159375 52.19625 -109.2159375 52.19625 -109.5 51.3125 C-105.22942943 44.90664414 -99.19553889 43.03507573 -92.36206055 40.11962891 C-90.52995785 39.32548553 -88.71202595 38.49890401 -86.89453125 37.671875 C-85.71246094 37.14078125 -84.53039062 36.6096875 -83.3125 36.0625 C-82.12269531 35.52109375 -80.93289062 34.9796875 -79.70703125 34.421875 C-76.60386971 33.34843057 -75.45460379 33.05147804 -72.5 34.3125 C-83.41431996 39.83576286 -94.409765 45.15169758 -105.5 50.3125 C-105.3465183 52.24744306 -105.3465183 52.24744306 -104.5 54.3125 C-102.51695045 55.72127442 -102.51695045 55.72127442 -99.9453125 56.765625 C-98.95515137 57.21196289 -97.96499023 57.65830078 -96.94482422 58.11816406 C-95.84928223 58.59479492 -94.75374023 59.07142578 -93.625 59.5625 C-91.87437598 60.34721976 -90.12376799 61.131976 -88.37368774 61.91790771 C-86.4588394 62.77543018 -84.54118291 63.6264219 -82.62304688 64.4765625 C-75.93941281 67.44492254 -69.29048018 70.48991004 -62.63909912 73.52966309 C-60.439648 74.53300887 -58.23791167 75.53117348 -56.03564453 76.52832031 C-48.28175533 80.05002366 -40.62062676 83.70998329 -33.01902771 87.54966736 C-28.05068086 90.05476165 -23.04004833 92.40835807 -17.9375 94.625 C-17.20982422 94.94533203 -16.48214844 95.26566406 -15.73242188 95.59570312 C-14.31460022 96.21862746 -12.89332442 96.83376547 -11.46826172 97.43994141 C-9.64118238 98.24991183 -7.86574021 99.17372301 -6.09765625 100.10546875 C3.11065992 103.19490382 10.92352978 99.19076534 19.1875 95.125 C21.47962435 94.03078151 23.77263336 92.93841474 26.06640625 91.84765625 C26.66233582 91.56199799 27.25826538 91.27633972 27.87225342 90.98202515 C34.39754748 87.85991891 41.00081775 84.91619716 47.6050415 81.96585083 C57.27609289 77.64083509 66.87232053 73.23408701 76.30078125 68.3984375 C86.20941235 63.39438751 96.40496062 58.92552624 106.5 54.3125 C106.5 52.9925 106.5 51.6725 106.5 50.3125 C93.56663609 44.04872669 80.60990149 37.84883587 67.53173828 31.89257812 C60.94843497 28.89409499 54.37668642 25.87211835 47.8125 22.83203125 C46.95625031 22.4357251 46.10000061 22.03941895 45.21780396 21.63110352 C38.22848665 18.39611937 38.22848665 18.39611937 34.85150146 16.82879639 C26.79284191 13.08914399 18.73068454 9.35788148 10.5859375 5.80859375 C9.50618652 5.33736084 8.42643555 4.86612793 7.31396484 4.38061523 C-1.34696521 1.09312877 -8.31721158 5.00883741 -16.296875 8.55566406 C-19.3297001 9.93954462 -22.3533829 11.34182031 -25.375 12.75 C-26.48037109 13.26135498 -27.58574219 13.77270996 -28.72460938 14.29956055 C-34.28648635 16.87523929 -39.83939384 19.46836219 -45.37942505 22.09062195 C-47.95884997 23.31068279 -50.54088737 24.52515774 -53.12310791 25.73928833 C-54.37236265 26.32881583 -55.62021775 26.9213186 -56.86663818 27.51681519 C-58.6056884 28.34762347 -60.34961152 29.16820869 -62.09375 29.98828125 C-63.09083984 30.46177002 -64.08792969 30.93525879 -65.11523438 31.4230957 C-65.90220703 31.71659912 -66.68917969 32.01010254 -67.5 32.3125 C-68.16 31.9825 -68.82 31.6525 -69.5 31.3125 C-68.26309461 28.83868922 -67.3339533 28.55700651 -64.875 27.375 C-63.78251953 26.8490625 -63.78251953 26.8490625 -62.66796875 26.3125 C-60.28102636 25.21149594 -57.87439364 24.16317674 -55.45043945 23.14624023 C-53.10977416 22.14569298 -50.79613021 21.09230141 -48.48046875 20.03515625 C-44.5876312 18.26111107 -40.69099955 16.49612752 -36.7890625 14.7421875 C-35.38720703 14.10990234 -35.38720703 14.10990234 -33.95703125 13.46484375 C-32.04660545 12.60317584 -30.13512052 11.7438528 -28.22265625 10.88671875 C-26.83240234 10.25830078 -26.83240234 10.25830078 -25.4140625 9.6171875 C-24.5885791 9.24577637 -23.7630957 8.87436523 -22.91259766 8.49169922 C-20.42125785 7.33204854 -20.42125785 7.33204854 -17.94287109 5.66845703 C-15.5 4.3125 -15.5 4.3125 -11.5 4.3125 C-11.5 3.6525 -11.5 2.9925 -11.5 2.3125 C-7.55217867 0.46380009 -4.34690758 0.01523449 0 0 Z " fill="#111516" transform="translate(121.5,11.6875)"/>
<path d="M0 0 C1.1034375 -0.01675781 2.206875 -0.03351562 3.34375 -0.05078125 C6.84400396 0.35209452 8.6214876 1.34453744 11.5 3.3125 C13.1790027 4.05513581 14.85935256 4.79544522 16.5546875 5.5 C19.45700133 6.7122114 22.32303221 8.00375174 25.1953125 9.28515625 C26.66801297 9.94163121 28.14186366 10.59553582 29.6171875 11.24609375 C38.41788234 15.13064953 47.18117722 19.09753821 55.7578125 23.45703125 C57.95104487 24.53397719 60.20213671 25.4593281 62.45703125 26.3984375 C65.16599331 27.61047788 67.79321332 28.96547316 70.4375 30.3125 C74.40819149 32.32004216 78.31249136 34.06249697 82.50390625 35.53515625 C85.82145515 36.82711756 88.94626696 38.49730576 92.11328125 40.1171875 C94.13856208 41.13148526 96.16231489 42.06187049 98.25 42.9375 C108.39716841 47.23053279 108.39716841 47.23053279 110.5 51.3125 C110.1875 53.5625 110.1875 53.5625 109.5 55.3125 C107.5 53.3125 107.5 53.3125 106.5 50.3125 C104.41258683 48.95112849 104.41258683 48.95112849 101.77734375 47.78125 C100.77751465 47.30671387 99.77768555 46.83217773 98.74755859 46.34326172 C97.65523926 45.83811035 96.56291992 45.33295898 95.4375 44.8125 C94.30135254 44.2777002 93.16520508 43.74290039 91.99462891 43.19189453 C88.50210383 41.552882 85.00259947 39.9298576 81.5 38.3125 C80.54077637 37.86874023 79.58155273 37.42498047 78.59326172 36.96777344 C73.90184869 34.80172911 69.20286929 32.65276088 64.5 30.51171875 C58.92815375 27.9718577 53.36894277 25.40539966 47.8125 22.83203125 C46.95625031 22.4357251 46.10000061 22.03941895 45.21780396 21.63110352 C38.22848665 18.39611937 38.22848665 18.39611937 34.85150146 16.82879639 C26.79284191 13.08914399 18.73068454 9.35788148 10.5859375 5.80859375 C9.50618652 5.33736084 8.42643555 4.86612793 7.31396484 4.38061523 C-1.34696521 1.09312877 -8.31721158 5.00883741 -16.296875 8.55566406 C-19.3297001 9.93954462 -22.3533829 11.34182031 -25.375 12.75 C-27.03305664 13.51703247 -27.03305664 13.51703247 -28.72460938 14.29956055 C-34.28648635 16.87523929 -39.83939384 19.46836219 -45.37942505 22.09062195 C-47.95884997 23.31068279 -50.54088737 24.52515774 -53.12310791 25.73928833 C-54.37236265 26.32881583 -55.62021775 26.9213186 -56.86663818 27.51681519 C-58.6056884 28.34762347 -60.34961152 29.16820869 -62.09375 29.98828125 C-63.58938477 30.6985144 -63.58938477 30.6985144 -65.11523438 31.4230957 C-65.90220703 31.71659912 -66.68917969 32.01010254 -67.5 32.3125 C-68.16 31.9825 -68.82 31.6525 -69.5 31.3125 C-68.26309461 28.83868922 -67.3339533 28.55700651 -64.875 27.375 C-64.14667969 27.024375 -63.41835938 26.67375 -62.66796875 26.3125 C-60.28102636 25.21149594 -57.87439364 24.16317674 -55.45043945 23.14624023 C-53.10977416 22.14569298 -50.79613021 21.09230141 -48.48046875 20.03515625 C-44.5876312 18.26111107 -40.69099955 16.49612752 -36.7890625 14.7421875 C-35.38720703 14.10990234 -35.38720703 14.10990234 -33.95703125 13.46484375 C-32.04660545 12.60317584 -30.13512052 11.7438528 -28.22265625 10.88671875 C-26.83240234 10.25830078 -26.83240234 10.25830078 -25.4140625 9.6171875 C-24.5885791 9.24577637 -23.7630957 8.87436523 -22.91259766 8.49169922 C-20.42125785 7.33204854 -20.42125785 7.33204854 -17.94287109 5.66845703 C-15.5 4.3125 -15.5 4.3125 -11.5 4.3125 C-11.5 3.6525 -11.5 2.9925 -11.5 2.3125 C-7.55217867 0.46380009 -4.34690758 0.01523449 0 0 Z " fill="#171D1E" transform="translate(121.5,11.6875)"/>
<path d="M0 0 C0.99 0.99 0.99 0.99 2 2 C1.34 2 0.68 2 0 2 C-0.66 3.32 -1.32 4.64 -2 6 C-2.66 6 -3.32 6 -4 6 C-4.22945312 6.5671875 -4.45890625 7.134375 -4.6953125 7.71875 C-6.34215553 10.59825996 -8.37122718 12.33055886 -10.875 14.5 C-13.40268882 16.70323921 -15.86967349 18.86457174 -18.1953125 21.28125 C-20 23 -20 23 -22 23 C-22.66 24.32 -23.32 25.64 -24 27 C-24.66 27 -25.32 27 -26 27 C-26.495 28.485 -26.495 28.485 -27 30 C-28.7421875 31.71875 -28.7421875 31.71875 -30.875 33.5 C-33.85384531 36.00265321 -33.85384531 36.00265321 -36.6328125 38.71875 C-38 40 -38 40 -40 40 C-40.66 41.32 -41.32 42.64 -42 44 C-42.66 44 -43.32 44 -44 44 C-44.33 44.99 -44.66 45.98 -45 47 C-46.6015625 48.578125 -46.6015625 48.578125 -48.625 50.25 C-52.09263164 53.18223429 -55.30744562 56.2502464 -58.45703125 59.51953125 C-60.82671373 61.79322659 -62.53637207 62.93818294 -65.8125 63.375 C-69.79910931 62.90598714 -71.90657314 61.5042027 -75 59 C-75 58.34 -75 57.68 -75 57 C-75.9590625 56.814375 -75.9590625 56.814375 -76.9375 56.625 C-77.618125 56.41875 -78.29875 56.2125 -79 56 C-79.33 55.34 -79.66 54.68 -80 54 C-81.65337979 52.9781815 -83.32321655 51.98294203 -85 51 C-87.1230343 49.50561827 -89.22668045 47.98340045 -91.3125 46.4375 C-91.86228516 46.03853516 -92.41207031 45.63957031 -92.97851562 45.22851562 C-94.35763772 44.20231173 -95.6840594 43.10606172 -97 42 C-97 41.34 -97 40.68 -97 40 C-97.598125 39.896875 -98.19625 39.79375 -98.8125 39.6875 C-101.37905857 38.88086731 -102.13608187 37.91250368 -104 36 C-109.80359798 31.10155033 -115.83154316 26.6345176 -122.1640625 22.4453125 C-122.76992187 21.96835938 -123.37578125 21.49140625 -124 21 C-124 20.34 -124 19.68 -124 19 C-125.0209375 18.6596875 -125.0209375 18.6596875 -126.0625 18.3125 C-130.13355042 16.49352003 -134.94528984 14.10942032 -137 10 C-137.04022391 7.6670134 -137.04320247 5.33293334 -137 3 C-136.67 3 -136.34 3 -136 3 C-135.67 5.31 -135.34 7.62 -135 10 C-134.34 10 -133.68 10 -133 10 C-133 10.66 -133 11.32 -133 12 C-132.443125 12.268125 -131.88625 12.53625 -131.3125 12.8125 C-126.52478864 15.27105448 -122.31110136 18.19969933 -118.0625 21.5 C-117.49748779 21.93795898 -116.93247559 22.37591797 -116.3503418 22.82714844 C-111.74898719 26.3997114 -107.16884431 29.9995592 -102.59301758 33.60473633 C-99.22555753 36.25677887 -95.84985037 38.89772209 -92.46484375 41.52734375 C-91.68810303 42.13078613 -90.9113623 42.73422852 -90.11108398 43.35595703 C-88.54816863 44.56834365 -86.98389595 45.7789827 -85.41821289 46.98779297 C-82.17853418 49.49491616 -78.95540549 52.00274141 -75.84375 54.66796875 C-74.9878125 55.39628906 -74.131875 56.12460938 -73.25 56.875 C-72.55390625 57.49117187 -71.8578125 58.10734375 -71.140625 58.7421875 C-68.04370331 60.56191156 -66.54754562 60.70690701 -63 60 C-60.22766413 57.93847995 -57.960759 55.47270374 -55.625 52.9375 C-54.2882421 51.54125879 -52.94972311 50.14670134 -51.609375 48.75390625 C-51.01608398 48.12299072 -50.42279297 47.4920752 -49.81152344 46.84204102 C-47.36773444 44.35708307 -44.7491877 42.11176081 -42.0859375 39.8671875 C-38.49988156 36.65719735 -35.16853856 33.18754783 -31.78564453 29.76611328 C-28.27931083 26.23526691 -24.68576982 22.89296431 -20.890625 19.671875 C-17.86585199 16.99707573 -15.08042384 14.08847131 -12.24609375 11.21484375 C-9.47770465 8.48497137 -6.5837072 5.93516797 -3.62890625 3.41015625 C-2.37392427 2.32370902 -1.17374345 1.17374345 0 0 Z " fill="#161A1B" transform="translate(189,123)"/>
<path d="M0 0 C5.95548092 0 6.57687266 0.93903166 10.6875 4.9375 C14.04898681 8.36221425 14.04898681 8.36221425 18 11 C18 11.66 18 12.32 18 13 C19.65 13.66 21.3 14.32 23 15 C23 15.66 23 16.32 23 17 C23.56589844 17.25910156 24.13179687 17.51820313 24.71484375 17.78515625 C27.22707405 19.120718 29.32728237 20.67882623 31.5625 22.4375 C32.32691406 23.03433594 33.09132812 23.63117188 33.87890625 24.24609375 C35.70651657 25.75732217 37.3263185 27.3263185 39 29 C44.70492572 33.83858805 50.51724659 38.50411534 56.63671875 42.80859375 C57.08660156 43.20175781 57.53648438 43.59492188 58 44 C58 44.66 58 45.32 58 46 C59.65 46.66 61.3 47.32 63 48 C63 48.66 63 49.32 63 50 C64.98 50.495 64.98 50.495 67 51 C67 51.66 67 52.32 67 53 C72.36584798 50.72357964 75.77765743 47.61845173 79.75 43.5 C80.32621094 42.91863281 80.90242188 42.33726562 81.49609375 41.73828125 C83.95936263 39.22907728 86.03831594 36.94252609 88 34 C88.66 34 89.32 34 90 34 C90.33 33.01 90.66 32.02 91 31 C92.5234375 29.53515625 92.5234375 29.53515625 94.375 28.0625 C97.01911803 25.89421507 98.97841788 23.76637554 101 21 C101.66 21 102.32 21 103 21 C103.37125 20.0409375 103.37125 20.0409375 103.75 19.0625 C105 17 105 17 107.125 16.25 C107.74375 16.1675 108.3625 16.085 109 16 C107.6183342 19.09331506 106.01886307 21.24953836 103.65527344 23.66699219 C102.97406433 24.36741638 102.29285522 25.06784058 101.59100342 25.78948975 C100.48634735 26.90689545 100.48634735 26.90689545 99.359375 28.046875 C98.59957336 28.81807678 97.83977173 29.58927856 97.0569458 30.3838501 C95.44916902 32.01050166 93.83847731 33.63427653 92.22509766 35.25537109 C89.7590657 37.74086276 87.31516962 40.24684634 84.87109375 42.75390625 C83.30601211 44.33204392 81.73964779 45.90891077 80.171875 47.484375 C79.44353455 48.23740906 78.71519409 48.99044312 77.96478271 49.76629639 C72.8221145 54.86447553 72.8221145 54.86447553 68.62036133 55.55712891 C65.44376853 54.88173668 64.21761038 53.91870945 61.9375 51.625 C58.39198268 48.24549352 54.72935066 45.18396833 50.8125 42.25 C45.39948613 38.15855541 40.22845789 33.84127814 35.09985352 29.40039062 C28.89148688 24.02518142 22.57574064 18.78647891 16.09765625 13.73828125 C15.17855469 13.02027344 14.25945312 12.30226562 13.3125 11.5625 C12.48363281 10.92441406 11.65476562 10.28632813 10.80078125 9.62890625 C10.20652344 9.09136719 9.61226562 8.55382812 9 8 C9 7.34 9 6.68 9 6 C8.13375 5.566875 8.13375 5.566875 7.25 5.125 C5.16666667 4.08333333 3.08333333 3.04166667 1 2 C1 6.29 1 10.58 1 15 C0.67 15 0.34 15 0 15 C0 10.05 0 5.1 0 0 Z " fill="#1A1E20" transform="translate(51,159)"/>
<path d="M0 0 C0 3.3 0 6.6 0 10 C-0.33 10 -0.66 10 -1 10 C-1 7.69 -1 5.38 -1 3 C-1.91604004 3.44315552 -1.91604004 3.44315552 -2.85058594 3.89526367 C-14.90838072 9.72185657 -26.98684455 15.50169102 -39.12634277 21.15615845 C-40.89522069 21.98030152 -42.66295697 22.80689353 -44.43066406 23.63354492 C-66.76155253 34.00238831 -66.76155253 34.00238831 -76.51953125 30.55078125 C-85.51839536 27.19441181 -94.10407415 22.84902777 -102.75 18.6875 C-105.36634771 17.43391426 -107.98338522 16.18177694 -110.60046387 14.92971802 C-112.30169208 14.11562803 -114.00262469 13.30092 -115.70324707 12.48556519 C-123.11068383 8.93669122 -130.54770231 5.45352108 -138 2 C-138 1.67 -138 1.34 -138 1 C-132.71531299 0.54470389 -129.17162589 2.05121017 -124.625 4.5 C-123.21238079 5.23334498 -121.79961596 5.96640952 -120.38671875 6.69921875 C-119.66532715 7.07868652 -118.94393555 7.4581543 -118.20068359 7.84912109 C-114.63482326 9.71393867 -111.03643803 11.51260648 -107.4375 13.3125 C-106.79570801 13.63734375 -106.15391602 13.9621875 -105.49267578 14.296875 C-101.38995999 16.36054211 -97.22936591 18.20528614 -93 20 C-90.87219253 20.99401225 -88.74714136 21.9939478 -86.625 23 C-73.67357325 29.064594 -73.67357325 29.064594 -59.890625 27.2421875 C-57.55678195 26.22858413 -55.28227026 25.12485903 -53 24 C-51.10618876 23.12063204 -49.21013491 22.24608598 -47.3125 21.375 C-46.22582031 20.87097656 -45.13914062 20.36695312 -44.01953125 19.84765625 C-40.83770792 18.37854681 -37.64472864 16.9351777 -34.44921875 15.49609375 C-32.98005005 14.83311279 -32.98005005 14.83311279 -31.48120117 14.15673828 C-29.52285184 13.27370893 -27.56340976 12.39309825 -25.6027832 11.51513672 C-21.24001706 9.54550281 -17.05945968 7.55253904 -13 5 C-10.68191636 3.96514123 -8.34824702 2.9644586 -6 2 C-5.05125 1.608125 -4.1025 1.21625 -3.125 0.8125 C-1 0 -1 0 0 0 Z " fill="#171A1C" transform="translate(190,95)"/>
<path d="M0 0 C0.33 0 0.66 0 1 0 C3.50297816 11.83226039 -1.40296969 23.50724769 -7.6875 33.4375 C-13.47356104 41.76768335 -20.39775517 49.50765764 -29 55 C-29.66 55 -30.32 55 -31 55 C-31 55.66 -31 56.32 -31 57 C-49.8231714 65.60408278 -68.91211048 69.73333747 -89.2734375 63.48046875 C-108.32315234 56.35369532 -108.32315234 56.35369532 -111 51 C-113.01669827 49.86649466 -113.01669827 49.86649466 -115 49 C-115 48.01 -115 47.02 -115 46 C-111.78152733 47.51589316 -108.89888375 49.34551315 -105.9375 51.3125 C-89.97119984 61.45753353 -72.3359076 65.64112327 -53.57568359 61.86816406 C-41.49881109 59.16178704 -31.3444896 54.18772493 -22 46 C-21.38511719 45.46761719 -20.77023438 44.93523437 -20.13671875 44.38671875 C-7.3726641 32.52831765 -2.59689255 16.63700269 0 0 Z " fill="#1A1E1F" transform="translate(189,172)"/>
<path d="M0 0 C3.21847267 1.51589316 6.10111625 3.34551315 9.0625 5.3125 C27.0272926 16.72738143 45.16379569 18.38128049 66 16 C66 16.66 66 17.32 66 18 C46.47826818 23.65519462 27.87320856 19.48901319 10.36816406 10.17407227 C5.14045314 7.28090627 5.14045314 7.28090627 4 5 C1.98330173 3.86649466 1.98330173 3.86649466 0 3 C0 2.01 0 1.02 0 0 Z " fill="#161A1B" transform="translate(74,218)"/>
<path d="M0 0 C-8.41459495 4.2582607 -16.85499038 8.45604583 -25.375 12.5 C-26.10581787 12.84998047 -26.83663574 13.19996094 -27.58959961 13.56054688 C-32.76362079 16 -32.76362079 16 -35 16 C-35.33 17.32 -35.66 18.64 -36 20 C-36.33 19.01 -36.66 18.02 -37 17 C-33.18747359 10.53528131 -26.444672 8.61554545 -19.86206055 5.80712891 C-18.02995785 5.01298553 -16.21202595 4.18640401 -14.39453125 3.359375 C-13.21246094 2.82828125 -12.03039062 2.2971875 -10.8125 1.75 C-9.62269531 1.20859375 -8.43289062 0.6671875 -7.20703125 0.109375 C-4.10386971 -0.96406943 -2.95460379 -1.26102196 0 0 Z " fill="#1D2223" transform="translate(49,46)"/>
<path d="M0 0 C-1.60373148 4.00517396 -4.42113986 6.6771098 -7.4453125 9.640625 C-7.97518768 10.16767029 -8.50506287 10.69471558 -9.05099487 11.23773193 C-10.73767825 12.91325675 -12.43119564 14.58167722 -14.125 16.25 C-15.27259388 17.38755851 -16.41973461 18.52557436 -17.56640625 19.6640625 C-20.37238137 22.44803465 -23.18450464 25.2256576 -26 28 C-26.99 27.67 -27.98 27.34 -29 27 C-26.78688373 23.99016187 -24.49441317 21.49178869 -21.625 19.125 C-19.15008809 17.07134969 -17.0445407 14.98187561 -15 12.5 C-12.45943855 9.42135716 -9.69862877 6.88439504 -6.61328125 4.359375 C-4.9483029 3.0081982 -4.9483029 3.0081982 -3.41796875 1.328125 C-2 0 -2 0 0 0 Z " fill="#1D2021" transform="translate(189,146)"/>
<path d="M0 0 C0.33 0 0.66 0 1 0 C1.17015625 0.68964844 1.3403125 1.37929687 1.515625 2.08984375 C4.30075878 12.88964443 8.34428229 21.05414286 15 30 C15.58910156 30.79535156 16.17820312 31.59070313 16.78515625 32.41015625 C18.18072975 34.2808186 19.58479801 36.14416735 21 38 C18 38 18 38 15.3125 35.6875 C13 33 13 33 13 30 C12.01 29.67 11.02 29.34 10 29 C2.76748487 20.53313562 -0.84751406 11.06476687 0 0 Z " fill="#1A1F1F" transform="translate(52,179)"/>
<path d="M0 0 C0 0.66 0 1.32 0 2 C-6.37746154 3.89377672 -12.11826365 4.2761097 -18.75 4.1875 C-19.68199219 4.18685547 -20.61398438 4.18621094 -21.57421875 4.18554688 C-25.56429338 4.15978599 -29.14391289 4.10639019 -33 3 C-33 2.34 -33 1.68 -33 1 C-32.36497559 1.00523682 -31.72995117 1.01047363 -31.07568359 1.01586914 C-28.17546595 1.03676256 -25.2752642 1.04969934 -22.375 1.0625 C-20.87646484 1.07506836 -20.87646484 1.07506836 -19.34765625 1.08789062 C-12.82527949 1.1094879 -6.4686038 -0.19025305 0 0 Z " fill="#07090A" transform="translate(140,234)"/>
<path d="M0 0 C0.33 0 0.66 0 1 0 C2.01894076 5.84888043 2.11798453 11.50919169 2.0625 17.4375 C2.05798828 18.35982422 2.05347656 19.28214844 2.04882812 20.23242188 C2.03713938 22.48835048 2.02075455 24.74413967 2 27 C1.01 27 0.02 27 -1 27 C-1.18451025 7.99544419 -1.18451025 7.99544419 0 0 Z " fill="#2F3435" transform="translate(190,96)"/>
<path d="M0 0 C0.99 0.33 1.98 0.66 3 1 C3.02914348 5.20831868 3.04684712 9.41661122 3.0625 13.625 C3.07087891 14.81480469 3.07925781 16.00460938 3.08789062 17.23046875 C3.09111328 18.38417969 3.09433594 19.53789062 3.09765625 20.7265625 C3.10289307 21.78439941 3.10812988 22.84223633 3.11352539 23.93212891 C2.99875578 27.03362346 2.57696282 29.95347657 2 33 C1.67 33 1.34 33 1 33 C-0.09266243 25.97942879 -0.11532882 19.09531697 -0.0625 12 C-0.05798828 10.84371094 -0.05347656 9.68742188 -0.04882812 8.49609375 C-0.03712529 5.66400775 -0.02072996 2.83203189 0 0 Z " fill="#313435" transform="translate(189,146)"/>
<path d="M0 0 C8.11351983 2.08342994 17.34091082 4.47720314 22 12 C21.6875 14.25 21.6875 14.25 21 16 C19 14 19 14 18 11 C16.31333959 9.89799791 16.31333959 9.89799791 14.21875 9.0625 C13.45949219 8.72476563 12.70023438 8.38703125 11.91796875 8.0390625 C11.12003906 7.69617187 10.32210937 7.35328125 9.5 7 C7.92285331 6.32226007 6.34968121 5.63517229 4.78125 4.9375 C3.7303418 4.48697266 3.7303418 4.48697266 2.65820312 4.02734375 C1 3 1 3 0 0 Z " fill="#1C2021" transform="translate(210,51)"/>
<path d="M0 0 C0.51046875 0.39960937 1.0209375 0.79921875 1.546875 1.2109375 C-4.34486781 3.95484609 -10.24834636 6.27469452 -16.453125 8.2109375 C-16.453125 7.5509375 -16.453125 6.8909375 -16.453125 6.2109375 C-14.21212931 4.98258425 -11.9629872 3.77864255 -9.703125 2.5859375 C-8.75179687 2.06 -8.75179687 2.06 -7.78125 1.5234375 C-3.00217062 -0.96566635 -3.00217062 -0.96566635 0 0 Z " fill="#14191A" transform="translate(163.453125,97.7890625)"/>
<path d="M0 0 C2.5 1.375 2.5 1.375 5 3 C5 3.66 5 4.32 5 5 C7.475 5.99 7.475 5.99 10 7 C10 7.66 10 8.32 10 9 C11.32 9.66 12.64 10.32 14 11 C9.00988077 11 7.96722736 9.68619488 4.25 6.5 C3.26515625 5.6646875 2.2803125 4.829375 1.265625 3.96875 C0.14414063 2.99421875 0.14414063 2.99421875 -1 2 C-0.67 1.34 -0.34 0.68 0 0 Z " fill="#171A1A" transform="translate(104,200)"/>
<path d="M0 0 C0.66 0.66 1.32 1.32 2 2 C1.34 2 0.68 2 0 2 C-0.66 3.32 -1.32 4.64 -2 6 C-2.66 6 -3.32 6 -4 6 C-4.2475 6.598125 -4.495 7.19625 -4.75 7.8125 C-6.19482573 10.34094503 -7.48280545 11.55070617 -10 13 C-10.99 12.67 -11.98 12.34 -13 12 C-8.71 8.04 -4.42 4.08 0 0 Z " fill="#151819" transform="translate(189,123)"/>
<path d="M0 0 C-2.62035018 1.36389525 -5.24556999 2.71632173 -7.875 4.0625 C-8.99455078 4.64741211 -8.99455078 4.64741211 -10.13671875 5.24414062 C-10.85214844 5.60830078 -11.56757812 5.97246094 -12.3046875 6.34765625 C-13.2944458 6.85824585 -13.2944458 6.85824585 -14.30419922 7.37915039 C-14.86381348 7.58403076 -15.42342773 7.78891113 -16 8 C-16.66 7.67 -17.32 7.34 -18 7 C-16.35 6.34 -14.7 5.68 -13 5 C-13 4.34 -13 3.68 -13 3 C-11.5903653 2.29819469 -10.17192359 1.61406042 -8.75 0.9375 C-7.96109375 0.55464844 -7.1721875 0.17179687 -6.359375 -0.22265625 C-3.68967374 -1.10224325 -2.62687863 -0.77788565 0 0 Z " fill="#181C1D" transform="translate(49,46)"/>
<path d="M0 0 C4.07262889 -0.27102027 6.62470093 0.47271499 10.25 2.3125 C11.55710938 2.95638672 11.55710938 2.95638672 12.890625 3.61328125 C15 5 15 5 16 8 C10.31497465 6.35433477 5.23318364 3.70967216 0 1 C0 0.67 0 0.34 0 0 Z " fill="#141718" transform="translate(171,34)"/>
<path d="M0 0 C0.33 0 0.66 0 1 0 C1.33 3.96 1.66 7.92 2 12 C2.33 12 2.66 12 3 12 C3.28571429 19.42857143 3.28571429 19.42857143 1 23 C-0.0176403 17.98391475 -0.11856434 13.21391694 -0.0625 8.125 C-0.05798828 7.34125 -0.05347656 6.5575 -0.04882812 5.75 C-0.03714093 3.83329986 -0.01920908 1.91663952 0 0 Z " fill="#313536" transform="translate(50,160)"/>
<path d="M0 0 C9.59453303 5.96583144 9.59453303 5.96583144 13 11 C12.01 11.495 12.01 11.495 11 12 C11 11.34 11 10.68 11 10 C10.1028125 9.8453125 10.1028125 9.8453125 9.1875 9.6875 C6.62865395 8.88329124 5.76710157 7.98798927 4 6 C3.278125 5.319375 2.55625 4.63875 1.8125 3.9375 C0 2 0 2 0 0 Z " fill="#101516" transform="translate(81,153)"/>
<path d="M0 0 C0.33 0 0.66 0 1 0 C1.92532319 5.36687447 2.31131602 8.8907751 0 14 C-0.66 14.66 -1.32 15.32 -2 16 C-1.34 10.72 -0.68 5.44 0 0 Z " fill="#0D0F11" transform="translate(189,172)"/>
<path d="M0 0 C0.99 0.33 1.98 0.66 3 1 C0.36 3.64 -2.28 6.28 -5 9 C-5.33 8.01 -5.66 7.02 -6 6 C-4.02 4.02 -2.04 2.04 0 0 Z " fill="#1C2223" transform="translate(175,136)"/>
<path d="M0 0 C1.46067199 0.45082469 2.91848032 0.91093537 4.375 1.375 C5.18710938 1.63023438 5.99921875 1.88546875 6.8359375 2.1484375 C9 3 9 3 11 5 C8 6 8 6 4.375 4.75 C1 3 1 3 0 0 Z " fill="#1E2223" transform="translate(186,40)"/>
<path d="M0 0 C-1.44390925 3.80666984 -3.34952803 5.26602582 -7 7 C-7.66 6.67 -8.32 6.34 -9 6 C-8.01 5.67 -7.02 5.34 -6 5 C-5.30062468 3.68352881 -4.63270867 2.34977849 -4 1 C-2 0 -2 0 0 0 Z " fill="#1E2122" transform="translate(160,175)"/>
<path d="M0 0 C3.63 0.66 7.26 1.32 11 2 C10.67 2.66 10.34 3.32 10 4 C8.72125 3.896875 7.4425 3.79375 6.125 3.6875 C5.04605469 3.60048828 5.04605469 3.60048828 3.9453125 3.51171875 C2 3 2 3 0 0 Z " fill="#0F1516" transform="translate(97,232)"/>
<path d="M0 0 C0.6875 1.625 0.6875 1.625 1 4 C-0.4375 7.25 -0.4375 7.25 -2 10 C-2.66 9.34 -3.32 8.68 -4 8 C-3.34 6.02 -2.68 4.04 -2 2 C-1.34 2 -0.68 2 0 2 C0 1.34 0 0.68 0 0 Z " fill="#292E30" transform="translate(188,186)"/>
<path d="M0 0 C1.48199902 0.44909061 2.96055236 0.90956564 4.4375 1.375 C5.26121094 1.63023438 6.08492188 1.88546875 6.93359375 2.1484375 C9 3 9 3 10 5 C3.49955237 4.38675022 3.49955237 4.38675022 1.0625 2.5 C0 1 0 1 0 0 Z " fill="#1D2021" transform="translate(76,106)"/>
<path d="M0 0 C-1.04874998 2.62187494 -1.64931313 3.79371361 -4.125 5.25 C-4.74375 5.4975 -5.3625 5.745 -6 6 C-6.33 5.34 -6.66 4.68 -7 4 C-3.375 0 -3.375 0 0 0 Z " fill="#161E1F" transform="translate(167,168)"/>
<path d="M0 0 C2.97 1.98 2.97 1.98 6 4 C5.67 4.99 5.34 5.98 5 7 C2.69 5.35 0.38 3.7 -2 2 C-1.34 1.34 -0.68 0.68 0 0 Z " fill="#1B2021" transform="translate(75,148)"/>
<path d="M0 0 C0.33 0.66 0.66 1.32 1 2 C-0.125 3.5 -0.125 3.5 -2 5 C-5.1875 5.1875 -5.1875 5.1875 -8 5 C-5.59078295 2.59078295 -3.05665491 1.46187844 0 0 Z " fill="#1B2526" transform="translate(147,114)"/>
<path d="M0 0 C1.9375 0.6875 1.9375 0.6875 4 2 C4.75 4.625 4.75 4.625 5 7 C4.01 7.495 4.01 7.495 3 8 C2.01 5.36 1.02 2.72 0 0 Z " fill="#242727" transform="translate(227,59)"/>
<path d="M0 0 C0.33 0 0.66 0 1 0 C1.33 2.31 1.66 4.62 2 7 C2.66 7 3.32 7 4 7 C4 7.99 4 8.98 4 10 C3.01 9.67 2.02 9.34 1 9 C-0.4783226 6.04335481 -0.06032783 3.25770263 0 0 Z " fill="#1C1F20" transform="translate(52,126)"/>
<path d="M0 0 C-4.455 1.485 -4.455 1.485 -9 3 C-8 0 -8 0 -6.1875 -1.3125 C-4 -2 -4 -2 0 0 Z " fill="#182021" transform="translate(165,99)"/>
<path d="M0 0 C5.75 1.75 5.75 1.75 8 4 C5 5 5 5 2.875 4.25 C1 3 1 3 0 0 Z " fill="#1E2728" transform="translate(143,20)"/>
</svg>
